<?xml version="1.0" encoding="UTF-8" standalone="no"?>
<!DOCTYPE svg PUBLIC "-//W3C//DTD SVG 1.1//EN" "http://www.w3.org/Graphics/SVG/1.1/DTD/svg11.dtd">
<svg xmlns="http://www.w3.org/2000/svg" version="1.1" viewBox="0.00 0.00 1024.00 1024.00">
<g stroke-width="2.00" fill="none" stroke-linecap="butt">
<path stroke="#8a8c8e" vector-effect="non-scaling-stroke" d="
  M 667.65 475.58
  A 0.35 0.35 0.0 0 0 667.30 475.23
  L 654.82 475.23
  A 0.35 0.35 0.0 0 0 654.47 475.58
  L 654.47 544.52
  A 0.35 0.35 0.0 0 0 654.82 544.87
  L 667.30 544.87
  A 0.35 0.35 0.0 0 0 667.65 544.52
  L 667.65 475.58"
/>
<path stroke="#8a8c8e" vector-effect="non-scaling-stroke" d="
  M 81.07 513.75
  Q 81.32 513.89 81.66 514.34
  Q 100.28 539.22 104.08 544.51
  A 0.90 0.89 72.0 0 0 104.81 544.89
  L 119.84 544.89
  A 0.51 0.51 0.0 0 0 120.25 544.08
  L 95.82 510.86
  A 0.79 0.78 45.4 0 1 95.82 509.91
  L 119.61 478.22
  A 0.31 0.31 0.0 0 0 119.36 477.72
  L 104.08 477.72
  A 1.41 1.40 18.1 0 0 102.95 478.29
  L 81.86 506.38
  A 0.53 0.52 63.6 0 1 80.92 506.06
  L 80.92 478.36
  A 0.63 0.63 0.0 0 0 80.29 477.73
  L 67.69 477.73
  A 0.67 0.67 0.0 0 0 67.02 478.40
  L 67.02 544.30
  A 0.54 0.53 -90.0 0 0 67.55 544.84
  L 80.35 544.84
  A 0.53 0.53 0.0 0 0 80.88 544.31
  L 80.88 513.86
  A 0.13 0.13 0.0 0 1 81.07 513.75"
/>
<path stroke="#8a8c8e" vector-effect="non-scaling-stroke" d="
  M 363.22 532.82
  Q 363.72 532.82 376.01 532.82
  A 0.49 0.48 79.4 0 1 376.47 533.14
  L 380.49 544.57
  A 0.51 0.49 80.0 0 0 380.96 544.91
  L 395.15 544.91
  A 0.39 0.39 0.0 0 0 395.52 544.39
  L 372.31 478.41
  A 0.83 0.83 0.0 0 0 371.62 477.85
  Q 370.53 477.73 363.23 477.73
  Q 355.94 477.72 354.85 477.85
  A 0.83 0.83 0.0 0 0 354.16 478.40
  L 330.90 544.37
  A 0.39 0.39 0.0 0 0 331.27 544.89
  L 345.46 544.90
  A 0.51 0.49 -79.9 0 0 345.93 544.56
  L 349.96 533.13
  A 0.49 0.48 -79.3 0 1 350.42 532.81
  Q 362.71 532.82 363.22 532.82"
/>
<path stroke="#8a8c8e" vector-effect="non-scaling-stroke" d="
  M 740.45 501.66
  Q 740.63 501.66 740.72 501.98
  Q 745.48 519.51 752.75 544.31
  A 0.81 0.80 81.8 0 0 753.52 544.89
  L 767.83 544.89
  A 0.85 0.84 -81.7 0 0 768.64 544.28
  L 787.76 478.23
  A 0.37 0.37 0.0 0 0 787.41 477.76
  L 773.50 477.76
  A 0.86 0.85 7.5 0 0 772.67 478.39
  L 760.39 525.13
  A 0.19 0.19 0.0 0 1 760.03 525.13
  L 746.91 478.23
  A 0.57 0.55 -6.7 0 0 746.39 477.83
  Q 743.62 477.75 740.46 477.75
  Q 737.30 477.75 734.53 477.82
  A 0.57 0.55 6.8 0 0 734.00 478.22
  L 720.84 525.11
  A 0.19 0.19 0.0 0 1 720.48 525.11
  L 708.24 478.36
  A 0.86 0.85 -7.4 0 0 707.41 477.73
  L 693.50 477.72
  A 0.37 0.37 0.0 0 0 693.15 478.19
  L 712.21 544.25
  A 0.85 0.84 81.8 0 0 713.02 544.86
  L 727.33 544.88
  A 0.81 0.80 -81.7 0 0 728.10 544.30
  Q 735.40 519.51 740.17 501.98
  Q 740.26 501.66 740.45 501.66"
/>
<path stroke="#8a8c8e" vector-effect="non-scaling-stroke" d="
  M 887.50 524.56
  A 0.28 0.28 0.0 0 1 888.00 524.39
  L 903.83 544.47
  A 1.13 1.13 0.0 0 0 904.71 544.89
  L 919.21 544.89
  A 0.35 0.34 70.9 0 0 919.48 544.33
  L 900.67 520.48
  A 0.72 0.71 -44.7 0 1 900.68 519.60
  L 918.70 497.16
  A 0.35 0.35 0.0 0 0 918.43 496.59
  L 904.42 496.59
  A 1.47 1.47 0.0 0 0 903.30 497.11
  Q 898.45 502.92 888.33 516.32
  Q 888.12 516.60 887.86 516.62
  Q 887.38 516.66 887.38 516.18
  Q 887.46 495.88 887.45 478.11
  A 0.40 0.40 0.0 0 0 887.05 477.72
  L 874.53 477.72
  A 0.50 0.49 -90.0 0 0 874.04 478.22
  L 874.04 544.37
  A 0.51 0.51 0.0 0 0 874.55 544.88
  L 887.13 544.88
  A 0.37 0.37 0.0 0 0 887.50 544.51
  L 887.50 524.56"
/>
<path stroke="#8a8c8e" vector-effect="non-scaling-stroke" d="
  M 168.50 520.66
  A 25.51 25.51 0.0 0 0 142.99 495.15
  A 25.51 25.51 0.0 0 0 117.48 520.66
  A 25.51 25.51 0.0 0 0 142.99 546.17
  A 25.51 25.51 0.0 0 0 168.50 520.66"
/>
<path stroke="#8a8c8e" vector-effect="non-scaling-stroke" d="
  M 187.12 502.84
  L 187.09 497.12
  A 0.56 0.56 0.0 0 0 186.53 496.57
  L 174.28 496.64
  A 0.44 0.44 0.0 0 0 173.85 497.08
  L 174.11 544.34
  A 0.53 0.53 0.0 0 0 174.64 544.86
  L 187.12 544.80
  A 0.33 0.32 -0.3 0 0 187.44 544.48
  Q 187.43 527.92 187.37 525.71
  Q 187.16 518.86 188.38 516.36
  C 191.21 510.50 195.85 509.79 201.75 509.54
  A 0.57 0.57 0.0 0 0 202.29 508.97
  L 202.22 496.00
  A 0.65 0.65 0.0 0 0 201.57 495.36
  C 195.38 495.32 191.13 498.02 187.82 503.04
  A 0.38 0.38 0.0 0 1 187.12 502.84"
/>
<path stroke="#8a8c8e" vector-effect="non-scaling-stroke" d="
  M 216.87 525.78
  L 251.59 525.78
  A 0.64 0.63 -86.4 0 0 252.22 525.22
  C 253.74 513.05 248.80 501.37 236.95 496.83
  C 222.62 491.34 206.05 499.82 203.51 515.42
  C 201.16 529.85 208.30 542.13 222.66 545.56
  Q 227.49 546.71 235.10 545.61
  C 241.21 544.72 246.60 541.07 250.09 536.22
  A 0.50 0.50 0.0 0 0 249.93 535.50
  L 240.19 529.87
  A 0.48 0.48 0.0 0 0 239.60 529.96
  Q 235.60 534.13 230.02 534.34
  Q 220.24 534.70 216.51 526.34
  A 0.40 0.39 -12.4 0 1 216.87 525.78"
/>
<path stroke="#8a8c8e" vector-effect="non-scaling-stroke" d="
  M 255.66 520.56
  C 255.60 534.31 264.71 545.82 278.95 546.06
  Q 287.89 546.22 293.37 540.16
  A 0.27 0.27 0.0 0 1 293.84 540.34
  L 293.83 544.29
  A 0.62 0.61 0.1 0 0 294.45 544.90
  L 306.15 544.92
  A 0.78 0.77 0.6 0 0 306.93 544.17
  Q 306.95 542.58 307.05 520.78
  Q 307.14 498.98 307.13 497.39
  A 0.78 0.77 -0.1 0 0 306.36 496.63
  L 294.66 496.55
  A 0.62 0.61 0.4 0 0 294.04 497.16
  L 294.01 501.11
  A 0.27 0.27 0.0 0 1 293.54 501.29
  Q 288.11 495.18 279.17 495.26
  C 264.92 495.38 255.72 506.82 255.66 520.56"
/>
<path stroke="#8a8c8e" vector-effect="non-scaling-stroke" d="
  M 412.11 500.40
  L 412.12 497.18
  A 0.61 0.61 0.0 0 0 411.51 496.57
  L 399.64 496.53
  A 0.33 0.33 0.0 0 0 399.31 496.86
  L 399.08 563.35
  A 0.60 0.60 0.0 0 0 399.68 563.96
  L 411.68 564.00
  A 0.63 0.63 0.0 0 0 412.31 563.37
  L 412.39 540.29
  A 0.22 0.22 0.0 0 1 412.78 540.14
  Q 417.37 545.32 424.60 545.93
  Q 440.37 547.26 447.52 533.18
  C 453.68 521.05 449.80 504.71 437.72 497.99
  C 431.31 494.44 422.96 494.07 416.66 497.77
  C 415.09 498.69 413.83 499.92 412.79 500.73
  A 0.42 0.42 0.0 0 1 412.11 500.40"
/>
<path stroke="#8a8c8e" vector-effect="non-scaling-stroke" d="
  M 468.81 500.48
  L 468.81 497.28
  A 0.61 0.61 0.0 0 0 468.20 496.67
  L 456.37 496.67
  A 0.33 0.33 0.0 0 0 456.04 497.00
  L 456.04 563.26
  A 0.60 0.60 0.0 0 0 456.64 563.86
  L 468.59 563.86
  A 0.63 0.63 0.0 0 0 469.22 563.23
  L 469.22 540.23
  A 0.22 0.22 0.0 0 1 469.61 540.08
  Q 474.20 545.23 481.41 545.81
  Q 497.13 547.08 504.20 533.03
  C 510.30 520.92 506.38 504.65 494.32 498.00
  C 487.92 494.48 479.60 494.14 473.33 497.85
  C 471.77 498.77 470.52 500.00 469.49 500.81
  A 0.42 0.42 0.0 0 1 468.81 500.48"
/>
<path stroke="#8a8c8e" vector-effect="non-scaling-stroke" d="
  M 510.33 520.59
  C 510.29 534.32 519.40 545.79 533.62 546.02
  Q 542.55 546.16 548.01 540.10
  A 0.27 0.27 0.0 0 1 548.48 540.28
  L 548.48 544.23
  A 0.62 0.61 0.0 0 0 549.10 544.84
  L 560.78 544.84
  A 0.77 0.77 0.0 0 0 561.55 544.08
  Q 561.57 542.50 561.64 520.74
  Q 561.70 498.97 561.68 497.39
  A 0.77 0.77 0.0 0 0 560.91 496.63
  L 549.23 496.56
  A 0.62 0.61 0.3 0 0 548.61 497.17
  L 548.59 501.12
  A 0.27 0.27 0.0 0 1 548.12 501.29
  Q 542.69 495.20 533.77 495.30
  C 519.54 495.44 510.37 506.87 510.33 520.59"
/>
<path stroke="#8a8c8e" vector-effect="non-scaling-stroke" d="
  M 582.99 502.83
  L 582.96 497.11
  A 0.56 0.56 0.0 0 0 582.40 496.55
  L 570.15 496.60
  A 0.44 0.44 0.0 0 0 569.71 497.04
  L 569.90 544.32
  A 0.53 0.53 0.0 0 0 570.43 544.85
  L 582.91 544.80
  A 0.33 0.32 -0.2 0 0 583.24 544.48
  Q 583.25 527.92 583.20 525.71
  Q 583.00 518.85 584.22 516.35
  C 587.06 510.50 591.70 509.79 597.61 509.55
  A 0.57 0.57 0.0 0 0 598.15 508.98
  L 598.10 496.01
  A 0.65 0.65 0.0 0 0 597.45 495.37
  C 591.25 495.32 587.00 498.01 583.68 503.03
  A 0.38 0.38 0.0 0 1 582.99 502.83"
/>
<path stroke="#8a8c8e" vector-effect="non-scaling-stroke" d="
  M 612.87 525.77
  L 647.61 525.75
  A 0.64 0.63 -86.4 0 0 648.24 525.19
  C 649.75 513.02 644.81 501.33 632.95 496.79
  C 618.61 491.31 602.03 499.80 599.50 515.41
  C 597.15 529.85 604.30 542.14 618.67 545.56
  Q 623.51 546.71 631.12 545.60
  C 637.23 544.71 642.62 541.06 646.11 536.20
  A 0.50 0.50 0.0 0 0 645.95 535.48
  L 636.21 529.85
  A 0.48 0.48 0.0 0 0 635.62 529.94
  Q 631.62 534.12 626.03 534.33
  Q 616.25 534.70 612.51 526.33
  A 0.40 0.39 -12.4 0 1 612.87 525.77"
/>
<path stroke="#8a8c8e" vector-effect="non-scaling-stroke" d="
  M 835.60 520.63
  A 25.54 25.54 0.0 0 0 810.06 495.09
  A 25.54 25.54 0.0 0 0 784.52 520.63
  A 25.54 25.54 0.0 0 0 810.06 546.17
  A 25.54 25.54 0.0 0 0 835.60 520.63"
/>
<path stroke="#8a8c8e" vector-effect="non-scaling-stroke" d="
  M 947.36 510.89
  L 957.17 505.79
  A 0.64 0.64 0.0 0 0 957.41 504.86
  C 951.43 495.71 939.85 492.94 929.93 496.93
  C 924.24 499.22 920.87 503.27 920.38 509.38
  C 919.35 522.04 931.83 524.27 941.42 527.09
  C 944.68 528.05 947.35 532.39 942.94 533.70
  Q 933.71 536.45 929.49 528.74
  A 0.65 0.64 -28.9 0 0 928.60 528.49
  L 918.73 534.18
  A 0.68 0.68 0.0 0 0 918.46 535.04
  C 923.27 545.75 937.19 547.57 947.24 544.95
  C 953.08 543.43 957.91 538.65 958.51 532.39
  C 959.77 519.21 948.51 517.32 938.52 514.27
  C 936.90 513.77 934.10 512.69 933.83 510.68
  Q 933.45 507.96 935.81 507.12
  Q 941.13 505.23 945.70 509.06
  Q 946.12 509.41 946.31 509.95
  Q 946.51 510.54 946.52 510.55
  A 0.59 0.59 0.0 0 0 947.36 510.89"
/>
<path stroke="#8a8c8e" vector-effect="non-scaling-stroke" d="
  M 854.35 502.81
  L 854.35 497.07
  A 0.56 0.56 0.0 0 0 853.79 496.51
  L 841.49 496.51
  A 0.44 0.44 0.0 0 0 841.05 496.95
  L 841.05 544.41
  A 0.53 0.53 0.0 0 0 841.58 544.94
  L 854.11 544.94
  A 0.33 0.32 0.0 0 0 854.44 544.62
  Q 854.52 528.00 854.47 525.78
  Q 854.30 518.90 855.54 516.39
  C 858.41 510.53 863.07 509.84 869.00 509.62
  A 0.57 0.57 0.0 0 0 869.55 509.05
  L 869.55 496.03
  A 0.65 0.65 0.0 0 0 868.90 495.38
  C 862.68 495.31 858.40 497.99 855.05 503.02
  A 0.38 0.38 0.0 0 1 854.35 502.81"
/>
<path stroke="#8a8c8e" vector-effect="non-scaling-stroke" d="
  M 354.47 519.23
  A 0.41 0.41 0.0 0 0 354.86 519.77
  L 371.67 519.74
  A 0.41 0.41 0.0 0 0 372.06 519.20
  L 363.61 494.14
  A 0.41 0.41 0.0 0 0 362.83 494.14
  L 354.47 519.23"
/>
<path stroke="#8a8c8e" vector-effect="non-scaling-stroke" d="
  M 142.5536 507.5887
  A 13.00 12.27 -92.1 0 0 130.7682 521.0296
  A 13.00 12.27 -92.1 0 0 143.5064 533.5713
  A 13.00 12.27 -92.1 0 0 155.2918 520.1304
  A 13.00 12.27 -92.1 0 0 142.5536 507.5887"
/>
<path stroke="#8a8c8e" vector-effect="non-scaling-stroke" d="
  M 216.92 515.69
  L 239.28 515.77
  A 0.04 0.04 0.0 0 0 239.32 515.73
  L 239.32 515.64
  A 11.10 8.83 0.2 0 0 228.26 506.77
  L 228.02 506.77
  A 11.10 8.83 0.2 0 0 216.88 515.56
  L 216.88 515.65
  A 0.04 0.04 0.0 0 0 216.92 515.69"
/>
<path stroke="#8a8c8e" vector-effect="non-scaling-stroke" d="
  M 280.9978 507.3252
  A 13.33 12.69 -91.6 0 0 268.6849 521.0043
  A 13.33 12.69 -91.6 0 0 281.7422 533.9748
  A 13.33 12.69 -91.6 0 0 294.0551 520.2957
  A 13.33 12.69 -91.6 0 0 280.9978 507.3252"
/>
<path stroke="#8a8c8e" vector-effect="non-scaling-stroke" d="
  M 423.9149 507.4376
  A 13.25 12.69 -93.7 0 0 412.1065 521.4789
  A 13.25 12.69 -93.7 0 0 425.6251 533.8824
  A 13.25 12.69 -93.7 0 0 437.4335 519.8411
  A 13.25 12.69 -93.7 0 0 423.9149 507.4376"
/>
<path stroke="#8a8c8e" vector-effect="non-scaling-stroke" d="
  M 480.8427 507.4269
  A 13.19 12.59 -92.9 0 0 468.9361 521.2370
  A 13.19 12.59 -92.9 0 0 482.1773 533.7731
  A 13.19 12.59 -92.9 0 0 494.0839 519.9630
  A 13.19 12.59 -92.9 0 0 480.8427 507.4269"
/>
<path stroke="#8a8c8e" vector-effect="non-scaling-stroke" d="
  M 535.7513 507.3429
  A 13.31 12.69 -91.2 0 0 523.3428 520.9158
  A 13.31 12.69 -91.2 0 0 536.3087 533.9571
  A 13.31 12.69 -91.2 0 0 548.7172 520.3842
  A 13.31 12.69 -91.2 0 0 535.7513 507.3429"
/>
<path stroke="#8a8c8e" vector-effect="non-scaling-stroke" d="
  M 612.91 515.76
  L 635.13 515.72
  A 0.01 0.01 0.0 0 0 635.14 515.71
  L 635.14 515.63
  A 11.02 8.91 -0.1 0 0 624.10 506.74
  L 623.90 506.74
  A 11.02 8.91 -0.1 0 0 612.90 515.67
  L 612.90 515.75
  A 0.01 0.01 0.0 0 0 612.91 515.76"
/>
<path stroke="#8a8c8e" vector-effect="non-scaling-stroke" d="
  M 810.1737 507.6505
  A 13.03 12.24 -89.5 0 0 797.8205 520.5732
  A 13.03 12.24 -89.5 0 0 809.9463 533.7095
  A 13.03 12.24 -89.5 0 0 822.2995 520.7868
  A 13.03 12.24 -89.5 0 0 810.1737 507.6505"
/>
</g>
<path fill="#ffffff" d="
  M 1024.00 0.00
  L 1024.00 1024.00
  L 0.00 1024.00
  L 0.00 0.00
  L 1024.00 0.00
  Z
  M 667.65 475.58
  A 0.35 0.35 0.0 0 0 667.30 475.23
  L 654.82 475.23
  A 0.35 0.35 0.0 0 0 654.47 475.58
  L 654.47 544.52
  A 0.35 0.35 0.0 0 0 654.82 544.87
  L 667.30 544.87
  A 0.35 0.35 0.0 0 0 667.65 544.52
  L 667.65 475.58
  Z
  M 81.07 513.75
  Q 81.32 513.89 81.66 514.34
  Q 100.28 539.22 104.08 544.51
  A 0.90 0.89 72.0 0 0 104.81 544.89
  L 119.84 544.89
  A 0.51 0.51 0.0 0 0 120.25 544.08
  L 95.82 510.86
  A 0.79 0.78 45.4 0 1 95.82 509.91
  L 119.61 478.22
  A 0.31 0.31 0.0 0 0 119.36 477.72
  L 104.08 477.72
  A 1.41 1.40 18.1 0 0 102.95 478.29
  L 81.86 506.38
  A 0.53 0.52 63.6 0 1 80.92 506.06
  L 80.92 478.36
  A 0.63 0.63 0.0 0 0 80.29 477.73
  L 67.69 477.73
  A 0.67 0.67 0.0 0 0 67.02 478.40
  L 67.02 544.30
  A 0.54 0.53 -90.0 0 0 67.55 544.84
  L 80.35 544.84
  A 0.53 0.53 0.0 0 0 80.88 544.31
  L 80.88 513.86
  A 0.13 0.13 0.0 0 1 81.07 513.75
  Z
  M 363.22 532.82
  Q 363.72 532.82 376.01 532.82
  A 0.49 0.48 79.4 0 1 376.47 533.14
  L 380.49 544.57
  A 0.51 0.49 80.0 0 0 380.96 544.91
  L 395.15 544.91
  A 0.39 0.39 0.0 0 0 395.52 544.39
  L 372.31 478.41
  A 0.83 0.83 0.0 0 0 371.62 477.85
  Q 370.53 477.73 363.23 477.73
  Q 355.94 477.72 354.85 477.85
  A 0.83 0.83 0.0 0 0 354.16 478.40
  L 330.90 544.37
  A 0.39 0.39 0.0 0 0 331.27 544.89
  L 345.46 544.90
  A 0.51 0.49 -79.9 0 0 345.93 544.56
  L 349.96 533.13
  A 0.49 0.48 -79.3 0 1 350.42 532.81
  Q 362.71 532.82 363.22 532.82
  Z
  M 740.45 501.66
  Q 740.63 501.66 740.72 501.98
  Q 745.48 519.51 752.75 544.31
  A 0.81 0.80 81.8 0 0 753.52 544.89
  L 767.83 544.89
  A 0.85 0.84 -81.7 0 0 768.64 544.28
  L 787.76 478.23
  A 0.37 0.37 0.0 0 0 787.41 477.76
  L 773.50 477.76
  A 0.86 0.85 7.5 0 0 772.67 478.39
  L 760.39 525.13
  A 0.19 0.19 0.0 0 1 760.03 525.13
  L 746.91 478.23
  A 0.57 0.55 -6.7 0 0 746.39 477.83
  Q 743.62 477.75 740.46 477.75
  Q 737.30 477.75 734.53 477.82
  A 0.57 0.55 6.8 0 0 734.00 478.22
  L 720.84 525.11
  A 0.19 0.19 0.0 0 1 720.48 525.11
  L 708.24 478.36
  A 0.86 0.85 -7.4 0 0 707.41 477.73
  L 693.50 477.72
  A 0.37 0.37 0.0 0 0 693.15 478.19
  L 712.21 544.25
  A 0.85 0.84 81.8 0 0 713.02 544.86
  L 727.33 544.88
  A 0.81 0.80 -81.7 0 0 728.10 544.30
  Q 735.40 519.51 740.17 501.98
  Q 740.26 501.66 740.45 501.66
  Z
  M 887.50 524.56
  A 0.28 0.28 0.0 0 1 888.00 524.39
  L 903.83 544.47
  A 1.13 1.13 0.0 0 0 904.71 544.89
  L 919.21 544.89
  A 0.35 0.34 70.9 0 0 919.48 544.33
  L 900.67 520.48
  A 0.72 0.71 -44.7 0 1 900.68 519.60
  L 918.70 497.16
  A 0.35 0.35 0.0 0 0 918.43 496.59
  L 904.42 496.59
  A 1.47 1.47 0.0 0 0 903.30 497.11
  Q 898.45 502.92 888.33 516.32
  Q 888.12 516.60 887.86 516.62
  Q 887.38 516.66 887.38 516.18
  Q 887.46 495.88 887.45 478.11
  A 0.40 0.40 0.0 0 0 887.05 477.72
  L 874.53 477.72
  A 0.50 0.49 -90.0 0 0 874.04 478.22
  L 874.04 544.37
  A 0.51 0.51 0.0 0 0 874.55 544.88
  L 887.13 544.88
  A 0.37 0.37 0.0 0 0 887.50 544.51
  L 887.50 524.56
  Z
  M 168.50 520.66
  A 25.51 25.51 0.0 0 0 142.99 495.15
  A 25.51 25.51 0.0 0 0 117.48 520.66
  A 25.51 25.51 0.0 0 0 142.99 546.17
  A 25.51 25.51 0.0 0 0 168.50 520.66
  Z
  M 187.12 502.84
  L 187.09 497.12
  A 0.56 0.56 0.0 0 0 186.53 496.57
  L 174.28 496.64
  A 0.44 0.44 0.0 0 0 173.85 497.08
  L 174.11 544.34
  A 0.53 0.53 0.0 0 0 174.64 544.86
  L 187.12 544.80
  A 0.33 0.32 -0.3 0 0 187.44 544.48
  Q 187.43 527.92 187.37 525.71
  Q 187.16 518.86 188.38 516.36
  C 191.21 510.50 195.85 509.79 201.75 509.54
  A 0.57 0.57 0.0 0 0 202.29 508.97
  L 202.22 496.00
  A 0.65 0.65 0.0 0 0 201.57 495.36
  C 195.38 495.32 191.13 498.02 187.82 503.04
  A 0.38 0.38 0.0 0 1 187.12 502.84
  Z
  M 216.87 525.78
  L 251.59 525.78
  A 0.64 0.63 -86.4 0 0 252.22 525.22
  C 253.74 513.05 248.80 501.37 236.95 496.83
  C 222.62 491.34 206.05 499.82 203.51 515.42
  C 201.16 529.85 208.30 542.13 222.66 545.56
  Q 227.49 546.71 235.10 545.61
  C 241.21 544.72 246.60 541.07 250.09 536.22
  A 0.50 0.50 0.0 0 0 249.93 535.50
  L 240.19 529.87
  A 0.48 0.48 0.0 0 0 239.60 529.96
  Q 235.60 534.13 230.02 534.34
  Q 220.24 534.70 216.51 526.34
  A 0.40 0.39 -12.4 0 1 216.87 525.78
  Z
  M 255.66 520.56
  C 255.60 534.31 264.71 545.82 278.95 546.06
  Q 287.89 546.22 293.37 540.16
  A 0.27 0.27 0.0 0 1 293.84 540.34
  L 293.83 544.29
  A 0.62 0.61 0.1 0 0 294.45 544.90
  L 306.15 544.92
  A 0.78 0.77 0.6 0 0 306.93 544.17
  Q 306.95 542.58 307.05 520.78
  Q 307.14 498.98 307.13 497.39
  A 0.78 0.77 -0.1 0 0 306.36 496.63
  L 294.66 496.55
  A 0.62 0.61 0.4 0 0 294.04 497.16
  L 294.01 501.11
  A 0.27 0.27 0.0 0 1 293.54 501.29
  Q 288.11 495.18 279.17 495.26
  C 264.92 495.38 255.72 506.82 255.66 520.56
  Z
  M 412.11 500.40
  L 412.12 497.18
  A 0.61 0.61 0.0 0 0 411.51 496.57
  L 399.64 496.53
  A 0.33 0.33 0.0 0 0 399.31 496.86
  L 399.08 563.35
  A 0.60 0.60 0.0 0 0 399.68 563.96
  L 411.68 564.00
  A 0.63 0.63 0.0 0 0 412.31 563.37
  L 412.39 540.29
  A 0.22 0.22 0.0 0 1 412.78 540.14
  Q 417.37 545.32 424.60 545.93
  Q 440.37 547.26 447.52 533.18
  C 453.68 521.05 449.80 504.71 437.72 497.99
  C 431.31 494.44 422.96 494.07 416.66 497.77
  C 415.09 498.69 413.83 499.92 412.79 500.73
  A 0.42 0.42 0.0 0 1 412.11 500.40
  Z
  M 468.81 500.48
  L 468.81 497.28
  A 0.61 0.61 0.0 0 0 468.20 496.67
  L 456.37 496.67
  A 0.33 0.33 0.0 0 0 456.04 497.00
  L 456.04 563.26
  A 0.60 0.60 0.0 0 0 456.64 563.86
  L 468.59 563.86
  A 0.63 0.63 0.0 0 0 469.22 563.23
  L 469.22 540.23
  A 0.22 0.22 0.0 0 1 469.61 540.08
  Q 474.20 545.23 481.41 545.81
  Q 497.13 547.08 504.20 533.03
  C 510.30 520.92 506.38 504.65 494.32 498.00
  C 487.92 494.48 479.60 494.14 473.33 497.85
  C 471.77 498.77 470.52 500.00 469.49 500.81
  A 0.42 0.42 0.0 0 1 468.81 500.48
  Z
  M 510.33 520.59
  C 510.29 534.32 519.40 545.79 533.62 546.02
  Q 542.55 546.16 548.01 540.10
  A 0.27 0.27 0.0 0 1 548.48 540.28
  L 548.48 544.23
  A 0.62 0.61 0.0 0 0 549.10 544.84
  L 560.78 544.84
  A 0.77 0.77 0.0 0 0 561.55 544.08
  Q 561.57 542.50 561.64 520.74
  Q 561.70 498.97 561.68 497.39
  A 0.77 0.77 0.0 0 0 560.91 496.63
  L 549.23 496.56
  A 0.62 0.61 0.3 0 0 548.61 497.17
  L 548.59 501.12
  A 0.27 0.27 0.0 0 1 548.12 501.29
  Q 542.69 495.20 533.77 495.30
  C 519.54 495.44 510.37 506.87 510.33 520.59
  Z
  M 582.99 502.83
  L 582.96 497.11
  A 0.56 0.56 0.0 0 0 582.40 496.55
  L 570.15 496.60
  A 0.44 0.44 0.0 0 0 569.71 497.04
  L 569.90 544.32
  A 0.53 0.53 0.0 0 0 570.43 544.85
  L 582.91 544.80
  A 0.33 0.32 -0.2 0 0 583.24 544.48
  Q 583.25 527.92 583.20 525.71
  Q 583.00 518.85 584.22 516.35
  C 587.06 510.50 591.70 509.79 597.61 509.55
  A 0.57 0.57 0.0 0 0 598.15 508.98
  L 598.10 496.01
  A 0.65 0.65 0.0 0 0 597.45 495.37
  C 591.25 495.32 587.00 498.01 583.68 503.03
  A 0.38 0.38 0.0 0 1 582.99 502.83
  Z
  M 612.87 525.77
  L 647.61 525.75
  A 0.64 0.63 -86.4 0 0 648.24 525.19
  C 649.75 513.02 644.81 501.33 632.95 496.79
  C 618.61 491.31 602.03 499.80 599.50 515.41
  C 597.15 529.85 604.30 542.14 618.67 545.56
  Q 623.51 546.71 631.12 545.60
  C 637.23 544.71 642.62 541.06 646.11 536.20
  A 0.50 0.50 0.0 0 0 645.95 535.48
  L 636.21 529.85
  A 0.48 0.48 0.0 0 0 635.62 529.94
  Q 631.62 534.12 626.03 534.33
  Q 616.25 534.70 612.51 526.33
  A 0.40 0.39 -12.4 0 1 612.87 525.77
  Z
  M 835.60 520.63
  A 25.54 25.54 0.0 0 0 810.06 495.09
  A 25.54 25.54 0.0 0 0 784.52 520.63
  A 25.54 25.54 0.0 0 0 810.06 546.17
  A 25.54 25.54 0.0 0 0 835.60 520.63
  Z
  M 947.36 510.89
  L 957.17 505.79
  A 0.64 0.64 0.0 0 0 957.41 504.86
  C 951.43 495.71 939.85 492.94 929.93 496.93
  C 924.24 499.22 920.87 503.27 920.38 509.38
  C 919.35 522.04 931.83 524.27 941.42 527.09
  C 944.68 528.05 947.35 532.39 942.94 533.70
  Q 933.71 536.45 929.49 528.74
  A 0.65 0.64 -28.9 0 0 928.60 528.49
  L 918.73 534.18
  A 0.68 0.68 0.0 0 0 918.46 535.04
  C 923.27 545.75 937.19 547.57 947.24 544.95
  C 953.08 543.43 957.91 538.65 958.51 532.39
  C 959.77 519.21 948.51 517.32 938.52 514.27
  C 936.90 513.77 934.10 512.69 933.83 510.68
  Q 933.45 507.96 935.81 507.12
  Q 941.13 505.23 945.70 509.06
  Q 946.12 509.41 946.31 509.95
  Q 946.51 510.54 946.52 510.55
  A 0.59 0.59 0.0 0 0 947.36 510.89
  Z
  M 854.35 502.81
  L 854.35 497.07
  A 0.56 0.56 0.0 0 0 853.79 496.51
  L 841.49 496.51
  A 0.44 0.44 0.0 0 0 841.05 496.95
  L 841.05 544.41
  A 0.53 0.53 0.0 0 0 841.58 544.94
  L 854.11 544.94
  A 0.33 0.32 0.0 0 0 854.44 544.62
  Q 854.52 528.00 854.47 525.78
  Q 854.30 518.90 855.54 516.39
  C 858.41 510.53 863.07 509.84 869.00 509.62
  A 0.57 0.57 0.0 0 0 869.55 509.05
  L 869.55 496.03
  A 0.65 0.65 0.0 0 0 868.90 495.38
  C 862.68 495.31 858.40 497.99 855.05 503.02
  A 0.38 0.38 0.0 0 1 854.35 502.81
  Z"
/>
<rect fill="#14181c" x="654.47" y="475.23" width="13.18" height="69.64" rx="0.35"/>
<path fill="#14181c" d="
  M 81.07 513.75
  A 0.13 0.13 0.0 0 0 80.88 513.86
  L 80.88 544.31
  A 0.53 0.53 0.0 0 1 80.35 544.84
  L 67.55 544.84
  A 0.54 0.53 -90.0 0 1 67.02 544.30
  L 67.02 478.40
  A 0.67 0.67 0.0 0 1 67.69 477.73
  L 80.29 477.73
  A 0.63 0.63 0.0 0 1 80.92 478.36
  L 80.92 506.06
  A 0.53 0.52 63.6 0 0 81.86 506.38
  L 102.95 478.29
  A 1.41 1.40 18.1 0 1 104.08 477.72
  L 119.36 477.72
  A 0.31 0.31 0.0 0 1 119.61 478.22
  L 95.82 509.91
  A 0.79 0.78 45.4 0 0 95.82 510.86
  L 120.25 544.08
  A 0.51 0.51 0.0 0 1 119.84 544.89
  L 104.81 544.89
  A 0.90 0.89 72.0 0 1 104.08 544.51
  Q 100.28 539.22 81.66 514.34
  Q 81.32 513.89 81.07 513.75
  Z"
/>
<path fill="#14181c" d="
  M 363.23 477.73
  Q 370.53 477.73 371.62 477.85
  A 0.83 0.83 0.0 0 1 372.31 478.41
  L 395.52 544.39
  A 0.39 0.39 0.0 0 1 395.15 544.91
  L 380.96 544.91
  A 0.51 0.49 80.0 0 1 380.49 544.57
  L 376.47 533.14
  A 0.49 0.48 79.4 0 0 376.01 532.82
  Q 363.72 532.82 363.22 532.82
  Q 362.71 532.82 350.42 532.81
  A 0.49 0.48 -79.3 0 0 349.96 533.13
  L 345.93 544.56
  A 0.51 0.49 -79.9 0 1 345.46 544.90
  L 331.27 544.89
  A 0.39 0.39 0.0 0 1 330.90 544.37
  L 354.16 478.40
  A 0.83 0.83 0.0 0 1 354.85 477.85
  Q 355.94 477.72 363.23 477.73
  Z
  M 354.47 519.23
  A 0.41 0.41 0.0 0 0 354.86 519.77
  L 371.67 519.74
  A 0.41 0.41 0.0 0 0 372.06 519.20
  L 363.61 494.14
  A 0.41 0.41 0.0 0 0 362.83 494.14
  L 354.47 519.23
  Z"
/>
<path fill="#14181c" d="
  M 740.46 477.75
  Q 743.62 477.75 746.39 477.83
  A 0.57 0.55 -6.7 0 1 746.91 478.23
  L 760.03 525.13
  A 0.19 0.19 0.0 0 0 760.39 525.13
  L 772.67 478.39
  A 0.86 0.85 7.5 0 1 773.50 477.76
  L 787.41 477.76
  A 0.37 0.37 0.0 0 1 787.76 478.23
  L 768.64 544.28
  A 0.85 0.84 -81.7 0 1 767.83 544.89
  L 753.52 544.89
  A 0.81 0.80 81.8 0 1 752.75 544.31
  Q 745.48 519.51 740.72 501.98
  Q 740.63 501.66 740.45 501.66
  Q 740.26 501.66 740.17 501.98
  Q 735.40 519.51 728.10 544.30
  A 0.81 0.80 -81.7 0 1 727.33 544.88
  L 713.02 544.86
  A 0.85 0.84 81.8 0 1 712.21 544.25
  L 693.15 478.19
  A 0.37 0.37 0.0 0 1 693.50 477.72
  L 707.41 477.73
  A 0.86 0.85 -7.4 0 1 708.24 478.36
  L 720.48 525.11
  A 0.19 0.19 0.0 0 0 720.84 525.11
  L 734.00 478.22
  A 0.57 0.55 6.8 0 1 734.53 477.82
  Q 737.30 477.75 740.46 477.75
  Z"
/>
<path fill="#14181c" d="
  M 887.50 524.56
  L 887.50 544.51
  A 0.37 0.37 0.0 0 1 887.13 544.88
  L 874.55 544.88
  A 0.51 0.51 0.0 0 1 874.04 544.37
  L 874.04 478.22
  A 0.50 0.49 -90.0 0 1 874.53 477.72
  L 887.05 477.72
  A 0.40 0.40 0.0 0 1 887.45 478.11
  Q 887.46 495.88 887.38 516.18
  Q 887.38 516.66 887.86 516.62
  Q 888.12 516.60 888.33 516.32
  Q 898.45 502.92 903.30 497.11
  A 1.47 1.47 0.0 0 1 904.42 496.59
  L 918.43 496.59
  A 0.35 0.35 0.0 0 1 918.70 497.16
  L 900.68 519.60
  A 0.72 0.71 -44.7 0 0 900.67 520.48
  L 919.48 544.33
  A 0.35 0.34 70.9 0 1 919.21 544.89
  L 904.71 544.89
  A 1.13 1.13 0.0 0 1 903.83 544.47
  L 888.00 524.39
  A 0.28 0.28 0.0 0 0 887.50 524.56
  Z"
/>
<path fill="#ffffff" d="
  M 354.47 519.23
  L 362.83 494.14
  A 0.41 0.41 0.0 0 1 363.61 494.14
  L 372.06 519.20
  A 0.41 0.41 0.0 0 1 371.67 519.74
  L 354.86 519.77
  A 0.41 0.41 0.0 0 1 354.47 519.23
  Z"
/>
<path fill="#14181c" d="
  M 168.50 520.66
  A 25.51 25.51 0.0 0 1 142.99 546.17
  A 25.51 25.51 0.0 0 1 117.48 520.66
  A 25.51 25.51 0.0 0 1 142.99 495.15
  A 25.51 25.51 0.0 0 1 168.50 520.66
  Z
  M 142.5536 507.5887
  A 13.00 12.27 -92.1 0 0 130.7682 521.0296
  A 13.00 12.27 -92.1 0 0 143.5064 533.5713
  A 13.00 12.27 -92.1 0 0 155.2918 520.1304
  A 13.00 12.27 -92.1 0 0 142.5536 507.5887
  Z"
/>
<path fill="#14181c" d="
  M 187.12 502.84
  A 0.38 0.38 0.0 0 0 187.82 503.04
  C 191.13 498.02 195.38 495.32 201.57 495.36
  A 0.65 0.65 0.0 0 1 202.22 496.00
  L 202.29 508.97
  A 0.57 0.57 0.0 0 1 201.75 509.54
  C 195.85 509.79 191.21 510.50 188.38 516.36
  Q 187.16 518.86 187.37 525.71
  Q 187.43 527.92 187.44 544.48
  A 0.33 0.32 -0.3 0 1 187.12 544.80
  L 174.64 544.86
  A 0.53 0.53 0.0 0 1 174.11 544.34
  L 173.85 497.08
  A 0.44 0.44 0.0 0 1 174.28 496.64
  L 186.53 496.57
  A 0.56 0.56 0.0 0 1 187.09 497.12
  L 187.12 502.84
  Z"
/>
<path fill="#14181c" d="
  M 216.87 525.78
  A 0.40 0.39 -12.4 0 0 216.51 526.34
  Q 220.24 534.70 230.02 534.34
  Q 235.60 534.13 239.60 529.96
  A 0.48 0.48 0.0 0 1 240.19 529.87
  L 249.93 535.50
  A 0.50 0.50 0.0 0 1 250.09 536.22
  C 246.60 541.07 241.21 544.72 235.10 545.61
  Q 227.49 546.71 222.66 545.56
  C 208.30 542.13 201.16 529.85 203.51 515.42
  C 206.05 499.82 222.62 491.34 236.95 496.83
  C 248.80 501.37 253.74 513.05 252.22 525.22
  A 0.64 0.63 -86.4 0 1 251.59 525.78
  L 216.87 525.78
  Z
  M 216.92 515.69
  L 239.28 515.77
  A 0.04 0.04 0.0 0 0 239.32 515.73
  L 239.32 515.64
  A 11.10 8.83 0.2 0 0 228.26 506.77
  L 228.02 506.77
  A 11.10 8.83 0.2 0 0 216.88 515.56
  L 216.88 515.65
  A 0.04 0.04 0.0 0 0 216.92 515.69
  Z"
/>
<path fill="#14181c" d="
  M 255.66 520.56
  C 255.72 506.82 264.92 495.38 279.17 495.26
  Q 288.11 495.18 293.54 501.29
  A 0.27 0.27 0.0 0 0 294.01 501.11
  L 294.04 497.16
  A 0.62 0.61 0.4 0 1 294.66 496.55
  L 306.36 496.63
  A 0.78 0.77 -0.1 0 1 307.13 497.39
  Q 307.14 498.98 307.05 520.78
  Q 306.95 542.58 306.93 544.17
  A 0.78 0.77 0.6 0 1 306.15 544.92
  L 294.45 544.90
  A 0.62 0.61 0.1 0 1 293.83 544.29
  L 293.84 540.34
  A 0.27 0.27 0.0 0 0 293.37 540.16
  Q 287.89 546.22 278.95 546.06
  C 264.71 545.82 255.60 534.31 255.66 520.56
  Z
  M 280.9978 507.3252
  A 13.33 12.69 -91.6 0 0 268.6849 521.0043
  A 13.33 12.69 -91.6 0 0 281.7422 533.9748
  A 13.33 12.69 -91.6 0 0 294.0551 520.2957
  A 13.33 12.69 -91.6 0 0 280.9978 507.3252
  Z"
/>
<path fill="#14181c" d="
  M 412.11 500.40
  A 0.42 0.42 0.0 0 0 412.79 500.73
  C 413.83 499.92 415.09 498.69 416.66 497.77
  C 422.96 494.07 431.31 494.44 437.72 497.99
  C 449.80 504.71 453.68 521.05 447.52 533.18
  Q 440.37 547.26 424.60 545.93
  Q 417.37 545.32 412.78 540.14
  A 0.22 0.22 0.0 0 0 412.39 540.29
  L 412.31 563.37
  A 0.63 0.63 0.0 0 1 411.68 564.00
  L 399.68 563.96
  A 0.60 0.60 0.0 0 1 399.08 563.35
  L 399.31 496.86
  A 0.33 0.33 0.0 0 1 399.64 496.53
  L 411.51 496.57
  A 0.61 0.61 0.0 0 1 412.12 497.18
  L 412.11 500.40
  Z
  M 423.9149 507.4376
  A 13.25 12.69 -93.7 0 0 412.1065 521.4789
  A 13.25 12.69 -93.7 0 0 425.6251 533.8824
  A 13.25 12.69 -93.7 0 0 437.4335 519.8411
  A 13.25 12.69 -93.7 0 0 423.9149 507.4376
  Z"
/>
<path fill="#14181c" d="
  M 469.49 500.81
  C 470.52 500.00 471.77 498.77 473.33 497.85
  C 479.60 494.14 487.92 494.48 494.32 498.00
  C 506.38 504.65 510.30 520.92 504.20 533.03
  Q 497.13 547.08 481.41 545.81
  Q 474.20 545.23 469.61 540.08
  A 0.22 0.22 0.0 0 0 469.22 540.23
  L 469.22 563.23
  A 0.63 0.63 0.0 0 1 468.59 563.86
  L 456.64 563.86
  A 0.60 0.60 0.0 0 1 456.04 563.26
  L 456.04 497.00
  A 0.33 0.33 0.0 0 1 456.37 496.67
  L 468.20 496.67
  A 0.61 0.61 0.0 0 1 468.81 497.28
  L 468.81 500.48
  A 0.42 0.42 0.0 0 0 469.49 500.81
  Z
  M 480.8427 507.4269
  A 13.19 12.59 -92.9 0 0 468.9361 521.2370
  A 13.19 12.59 -92.9 0 0 482.1773 533.7731
  A 13.19 12.59 -92.9 0 0 494.0839 519.9630
  A 13.19 12.59 -92.9 0 0 480.8427 507.4269
  Z"
/>
<path fill="#14181c" d="
  M 561.64 520.74
  Q 561.57 542.50 561.55 544.08
  A 0.77 0.77 0.0 0 1 560.78 544.84
  L 549.10 544.84
  A 0.62 0.61 0.0 0 1 548.48 544.23
  L 548.48 540.28
  A 0.27 0.27 0.0 0 0 548.01 540.10
  Q 542.55 546.16 533.62 546.02
  C 519.40 545.79 510.29 534.32 510.33 520.59
  C 510.37 506.87 519.54 495.44 533.77 495.30
  Q 542.69 495.20 548.12 501.29
  A 0.27 0.27 0.0 0 0 548.59 501.12
  L 548.61 497.17
  A 0.62 0.61 0.3 0 1 549.23 496.56
  L 560.91 496.63
  A 0.77 0.77 0.0 0 1 561.68 497.39
  Q 561.70 498.97 561.64 520.74
  Z
  M 535.7513 507.3429
  A 13.31 12.69 -91.2 0 0 523.3428 520.9158
  A 13.31 12.69 -91.2 0 0 536.3087 533.9571
  A 13.31 12.69 -91.2 0 0 548.7172 520.3842
  A 13.31 12.69 -91.2 0 0 535.7513 507.3429
  Z"
/>
<path fill="#14181c" d="
  M 582.99 502.83
  A 0.38 0.38 0.0 0 0 583.68 503.03
  C 587.00 498.01 591.25 495.32 597.45 495.37
  A 0.65 0.65 0.0 0 1 598.10 496.01
  L 598.15 508.98
  A 0.57 0.57 0.0 0 1 597.61 509.55
  C 591.70 509.79 587.06 510.50 584.22 516.35
  Q 583.00 518.85 583.20 525.71
  Q 583.25 527.92 583.24 544.48
  A 0.33 0.32 -0.2 0 1 582.91 544.80
  L 570.43 544.85
  A 0.53 0.53 0.0 0 1 569.90 544.32
  L 569.71 497.04
  A 0.44 0.44 0.0 0 1 570.15 496.60
  L 582.40 496.55
  A 0.56 0.56 0.0 0 1 582.96 497.11
  L 582.99 502.83
  Z"
/>
<path fill="#14181c" d="
  M 612.87 525.77
  A 0.40 0.39 -12.4 0 0 612.51 526.33
  Q 616.25 534.70 626.03 534.33
  Q 631.62 534.12 635.62 529.94
  A 0.48 0.48 0.0 0 1 636.21 529.85
  L 645.95 535.48
  A 0.50 0.50 0.0 0 1 646.11 536.20
  C 642.62 541.06 637.23 544.71 631.12 545.60
  Q 623.51 546.71 618.67 545.56
  C 604.30 542.14 597.15 529.85 599.50 515.41
  C 602.03 499.80 618.61 491.31 632.95 496.79
  C 644.81 501.33 649.75 513.02 648.24 525.19
  A 0.64 0.63 -86.4 0 1 647.61 525.75
  L 612.87 525.77
  Z
  M 612.91 515.76
  L 635.13 515.72
  A 0.01 0.01 0.0 0 0 635.14 515.71
  L 635.14 515.63
  A 11.02 8.91 -0.1 0 0 624.10 506.74
  L 623.90 506.74
  A 11.02 8.91 -0.1 0 0 612.90 515.67
  L 612.90 515.75
  A 0.01 0.01 0.0 0 0 612.91 515.76
  Z"
/>
<path fill="#14181c" d="
  M 835.60 520.63
  A 25.54 25.54 0.0 0 1 810.06 546.17
  A 25.54 25.54 0.0 0 1 784.52 520.63
  A 25.54 25.54 0.0 0 1 810.06 495.09
  A 25.54 25.54 0.0 0 1 835.60 520.63
  Z
  M 810.1737 507.6505
  A 13.03 12.24 -89.5 0 0 797.8205 520.5732
  A 13.03 12.24 -89.5 0 0 809.9463 533.7095
  A 13.03 12.24 -89.5 0 0 822.2995 520.7868
  A 13.03 12.24 -89.5 0 0 810.1737 507.6505
  Z"
/>
<path fill="#14181c" d="
  M 946.52 510.55
  Q 946.51 510.54 946.31 509.95
  Q 946.12 509.41 945.70 509.06
  Q 941.13 505.23 935.81 507.12
  Q 933.45 507.96 933.83 510.68
  C 934.10 512.69 936.90 513.77 938.52 514.27
  C 948.51 517.32 959.77 519.21 958.51 532.39
  C 957.91 538.65 953.08 543.43 947.24 544.95
  C 937.19 547.57 923.27 545.75 918.46 535.04
  A 0.68 0.68 0.0 0 1 918.73 534.18
  L 928.60 528.49
  A 0.65 0.64 -28.9 0 1 929.49 528.74
  Q 933.71 536.45 942.94 533.70
  C 947.35 532.39 944.68 528.05 941.42 527.09
  C 931.83 524.27 919.35 522.04 920.38 509.38
  C 920.87 503.27 924.24 499.22 929.93 496.93
  C 939.85 492.94 951.43 495.71 957.41 504.86
  A 0.64 0.64 0.0 0 1 957.17 505.79
  L 947.36 510.89
  A 0.59 0.59 0.0 0 1 946.52 510.55
  Z"
/>
<path fill="#14181c" d="
  M 855.05 503.02
  C 858.40 497.99 862.68 495.31 868.90 495.38
  A 0.65 0.65 0.0 0 1 869.55 496.03
  L 869.55 509.05
  A 0.57 0.57 0.0 0 1 869.00 509.62
  C 863.07 509.84 858.41 510.53 855.54 516.39
  Q 854.30 518.90 854.47 525.78
  Q 854.52 528.00 854.44 544.62
  A 0.33 0.32 -0.0 0 1 854.11 544.94
  L 841.58 544.94
  A 0.53 0.53 0.0 0 1 841.05 544.41
  L 841.05 496.95
  A 0.44 0.44 0.0 0 1 841.49 496.51
  L 853.79 496.51
  A 0.56 0.56 0.0 0 1 854.35 497.07
  L 854.35 502.81
  A 0.38 0.38 0.0 0 0 855.05 503.02
  Z"
/>
<path fill="#ffffff" d="
  M 612.91 515.76
  A 0.01 0.01 0.0 0 1 612.90 515.75
  L 612.90 515.67
  A 11.02 8.91 -0.1 0 1 623.90 506.74
  L 624.10 506.74
  A 11.02 8.91 -0.1 0 1 635.14 515.63
  L 635.14 515.71
  A 0.01 0.01 0.0 0 1 635.13 515.72
  L 612.91 515.76
  Z"
/>
<path fill="#ffffff" d="
  M 216.92 515.69
  A 0.04 0.04 0.0 0 1 216.88 515.65
  L 216.88 515.56
  A 11.10 8.83 0.2 0 1 228.02 506.77
  L 228.26 506.77
  A 11.10 8.83 0.2 0 1 239.32 515.64
  L 239.32 515.73
  A 0.04 0.04 0.0 0 1 239.28 515.77
  L 216.92 515.69
  Z"
/>
<ellipse fill="#ffffff" cx="0.00" cy="0.00" transform="translate(143.03,520.58) rotate(-92.1)" rx="13.00" ry="12.27"/>
<ellipse fill="#ffffff" cx="0.00" cy="0.00" transform="translate(281.37,520.65) rotate(-91.6)" rx="13.33" ry="12.69"/>
<ellipse fill="#ffffff" cx="0.00" cy="0.00" transform="translate(424.77,520.66) rotate(-93.7)" rx="13.25" ry="12.69"/>
<ellipse fill="#ffffff" cx="0.00" cy="0.00" transform="translate(481.51,520.60) rotate(-92.9)" rx="13.19" ry="12.59"/>
<ellipse fill="#ffffff" cx="0.00" cy="0.00" transform="translate(536.03,520.65) rotate(-91.2)" rx="13.31" ry="12.69"/>
<ellipse fill="#ffffff" cx="0.00" cy="0.00" transform="translate(810.06,520.68) rotate(-89.5)" rx="13.03" ry="12.24"/>
</svg>
